# xmcd
# 
# Track frame offsets:
#     150
#     17412
#     36825
#     59245
#     80295
#     101452
#     127832
#     148542
#     164905
#     187037
#     200760
#     214242
#     233600
#     250860
# 
# Disc length: 3936
# 
# Revision: 4
# Processed by: cddbd v1.5.2PL0 Copyright (c) Steve Scherf et al.
# Submitted via: fre:ac v1.0.31
# 
DISCID=c70f5e0e
DTITLE=U2 - The Best Of 1980-1990
DYEAR=1998
DGENRE=Rock/Pop
TTITLE0=Pride (In The Name Of Love)
TTITLE1=New Year's Day
TTITLE2=With Or Without You
TTITLE3=I Still Haven't Found What I'm Looking For
TTITLE4=Sunday Bloody Sunday
TTITLE5=Bad
TTITLE6=Where The Streets Have No Name
TTITLE7=I Will Follow
TTITLE8=The Unforgettable Fire
TTITLE9=Sweetest Thing
TTITLE10=Desire
TTITLE11=When Love Comes To Town
TTITLE12=Angel Of Harlem
TTITLE13=All I Want Is You
EXTD=
EXTT0=
EXTT1=
EXTT2=
EXTT3=
EXTT4=
EXTT5=
EXTT6=
EXTT7=
EXTT8=
EXTT9=
EXTT10=
EXTT11=
EXTT12=
EXTT13=
PLAYORDER=
